<?xml version="1.0" encoding="utf-8"?>
<!-- Generator: Adobe Illustrator 20.0.0, SVG Export Plug-In . SVG Version: 6.00 Build 0)  -->
<svg version="1.1" id="Ebene_1" xmlns="http://www.w3.org/2000/svg" xmlns:xlink="http://www.w3.org/1999/xlink" x="0px" y="0px"
	 viewBox="0 0 85 30.33333" enable-background="new 0 0 30 30" xml:space="preserve">
<g>
	<path d="M14.92059,7.86201c0-0.81195-0.6582-1.47015-1.47021-1.47015H7.42669v0.00018
		c-0.08887-0.00012-0.15625-0.00018-0.1665-0.00018c-1.27051,0-2.37207,0.67065-2.98413,1.6637L4.26532,8.05647L4.23089,8.13759
		C4.0971,8.36806,3.99188,8.61342,3.91571,8.87324l-2.91528,6.80652v3.41998h13.92017V7.86201z M13.07342,12.13374H9.13031
		c-0.3855,0-0.94238,0.2027-1.23779,0.4505l-0.46582,0.39111v-0.00006l-0.00391,0.00317l-1.67407,1.40521
		c-0.0127,0.01068-0.0293,0.01453-0.04248,0.02454l-0.2312,0.19263l-1.84595,0.01318l0.57935-1.36371
		c0.00073-0.00201,0.00073-0.00409,0.00171-0.0061l1.61304-3.7915c0.27417-0.64429,1.07153-1.17139,1.77148-1.17139h5.47876
		V12.13374z" fill="#1D1D1B" vector-effect="non-scaling-stroke" style="fill: rgb(112, 141, 191);"></path>
	<path d="M54.14251,20.88124c1.4856,1.0033,2.4624,2.70264,2.4624,4.63019h0.89575
		c0-1.92755,0.97681-3.62689,2.4624-4.63019H54.14251z" fill="#1D1D1B" vector-effect="non-scaling-stroke" style="fill: rgb(112, 141, 191);"></path>
	<path d="M66.26508,20.88124c1.48584,1.0033,2.4624,2.70264,2.4624,4.63019h0.896
		c0-1.92755,0.97656-3.62689,2.4624-4.63019H66.26508z" fill="#1D1D1B" vector-effect="non-scaling-stroke" style="fill: rgb(112, 141, 191);"></path>
	<path d="M9.70575,21.74067c-2.09277,0-3.7959,1.70312-3.7959,3.7959s1.70312,3.7959,3.7959,3.7959
		c2.09375,0,3.79688-1.70312,3.79688-3.7959S11.7995,21.74067,9.70575,21.74067z M9.70575,27.43208
		c-1.04492,0-1.89551-0.85059-1.89551-1.89551s0.85059-1.89551,1.89551-1.89551c1.0459,0,1.89648,0.85059,1.89648,1.89551
		S10.75165,27.43208,9.70575,27.43208z" fill="#1D1D1B" vector-effect="non-scaling-stroke" style="fill: rgb(112, 141, 191);"></path>
	<path d="M31.76727,21.74067c-2.09277,0-3.7959,1.70312-3.7959,3.7959s1.70312,3.7959,3.7959,3.7959
		c2.09375,0,3.79687-1.70312,3.79687-3.7959S33.86102,21.74067,31.76727,21.74067z M31.76727,27.43208
		c-1.04492,0-1.89551-0.85059-1.89551-1.89551s0.85059-1.89551,1.89551-1.89551c1.0459,0,1.89648,0.85059,1.89648,1.89551
		S32.81317,27.43208,31.76727,27.43208z" fill="#1D1D1B" vector-effect="non-scaling-stroke" style="fill: rgb(112, 141, 191);"></path>
	<path d="M38.54876,20.88124h-3.6499c1.4856,1.0033,2.4624,2.70264,2.4624,4.63019h1.29419
		c0.9939,0,1.79956-0.80566,1.79956-1.79944v-0.33075v-0.7005v-1.7995h-1.79956H38.54876z" fill="#1D1D1B" vector-effect="non-scaling-stroke" style="fill: rgb(112, 141, 191);"></path>
	<path d="M3.37689,20.88124h-0.5769H1.00042v1.7995v0.35675v0.6745c0,0.99377,0.80566,1.79944,1.79956,1.79944
		h1.34253c0-1.92755,0.97681-3.62689,2.4624-4.63019H3.37689z" fill="#1D1D1B" vector-effect="non-scaling-stroke" style="fill: rgb(112, 141, 191);"></path>
	<path d="M44.61566,20.88124h-0.5769h-1.79956v1.7995v0.35675v0.6745c0,0.99377,0.80566,1.79944,1.79956,1.79944
		h1.34253c0-1.92755,0.97681-3.62689,2.4624-4.63019H44.61566z" fill="#1D1D1B" vector-effect="non-scaling-stroke" style="fill: rgb(112, 141, 191);"></path>
	<path d="M12.84686,20.88124c1.4856,1.0033,2.4624,2.70264,2.4624,4.63019h10.88525
		c0-1.92755,0.97681-3.62689,2.4624-4.63019H12.84686z" fill="#1D1D1B" vector-effect="non-scaling-stroke" style="fill: rgb(112, 141, 191);"></path>
	<path d="M82.03094,20.88124h-3.6499c1.4856,1.0033,2.4624,2.70264,2.4624,4.63019h1.29419
		c0.9939,0,1.79956-0.80566,1.79956-1.79944v-0.33075v-0.7005v-1.7995h-1.79956H82.03094z" fill="#1D1D1B" vector-effect="non-scaling-stroke" style="fill: rgb(112, 141, 191);"></path>
	<path d="M50.98846,21.74019c-2.09277,0-3.7959,1.70312-3.7959,3.79639s1.70312,3.79639,3.7959,3.79639
		s3.7959-1.70312,3.7959-3.79639S53.08123,21.74019,50.98846,21.74019z M50.98846,27.43257
		c-1.04492,0-1.89551-0.85059-1.89551-1.896s0.85059-1.896,1.89551-1.896s1.89551,0.85059,1.89551,1.896
		S52.03338,27.43257,50.98846,27.43257z" fill="#1D1D1B" vector-effect="non-scaling-stroke" style="fill: rgb(112, 141, 191);"></path>
	<path d="M63.10516,21.74019c-2.09277,0-3.7959,1.70312-3.7959,3.79639s1.70312,3.79639,3.7959,3.79639
		c2.09375,0,3.79688-1.70312,3.79688-3.79639S65.19891,21.74019,63.10516,21.74019z M63.10516,27.43257
		c-1.04492,0-1.89551-0.85059-1.89551-1.896s0.85059-1.896,1.89551-1.896c1.0459,0,1.89649,0.85059,1.89649,1.896
		S64.15106,27.43257,63.10516,27.43257z" fill="#1D1D1B" vector-effect="non-scaling-stroke" style="fill: rgb(112, 141, 191);"></path>
	<path d="M75.2265,21.74019c-2.09277,0-3.7959,1.70312-3.7959,3.79639s1.70312,3.79639,3.7959,3.79639
		c2.09375,0,3.79688-1.70312,3.79688-3.79639S77.32025,21.74019,75.2265,21.74019z M75.2265,27.43257
		c-1.04492,0-1.89551-0.85059-1.89551-1.896s0.85059-1.896,1.89551-1.896c1.0459,0,1.89648,0.85059,1.89648,1.896
		S76.2724,27.43257,75.2265,27.43257z" fill="#1D1D1B" vector-effect="non-scaling-stroke" style="fill: rgb(112, 141, 191);"></path>
	<rect height="15.47249" width="3.65444" fill="#1D1D1B" y="0.12349" x="16.70691" vector-effect="non-scaling-stroke" style="fill: rgb(112, 141, 191);"></rect>
	<polygon points="23.77801,14.97841 23.77337,19.09358 23.77801,19.09358" fill="#1D1D1B" vector-effect="non-scaling-stroke" style="fill: rgb(112, 141, 191);"></polygon>
	<polygon points="22.16595,0.12349 22.16595,19.09425 38.2573,19.09974 83.93719,19.09974 83.93719,18.83528
		83.93719,0.12349" fill="#1D1D1B" vector-effect="non-scaling-stroke" style="fill: rgb(112, 141, 191);"></polygon>
</g>
</svg>
